OpenSim_Sub05_CSStiffKnee_GRF.mot
version=1
nRows=34
nColumns=19
inDegrees=no
endheader
time	lFx	lFy	lFz	lCOPx	lCOPy	lCOPz	rFx	rFy	rFz	rCOPx	rCOPy	rCOPz	lMx	lMy	lMz	rMx	rMy	rMz
84.36000000	-18.04863042	26.11846449	-5.34709587	0.32306993	0	-0.17934536	10.00747564	760.13982544	-45.08679565	1.03868439	0	-0.37462653	0	-0.84927594	0	0	2.91489433	0.00000000
84.37000000	-23.40391949	66.28663811	-6.94931904	0.67258452	0	-0.37500764	15.75317932	748.31285416	-45.53693402	1.03198407	0	-0.37518801	0	-0.64198639	0	0	3.04790811	0
84.38000000	-20.79188071	133.99031204	-9.23641368	0.95446070	0	-0.53489466	21.93035703	733.06638178	-45.75213987	1.02535000	0	-0.37580807	0	0.81058874	0	0	3.16278730	0
84.39000000	-9.91926924	226.35062549	-10.78331857	1.09092911	0	-0.61573038	28.25334257	714.90999507	-45.34326578	1.01894771	0	-0.37652467	0	3.25903367	0	0	3.27169753	0
84.40000000	0.93876812	328.24581729	-8.98825228	1.12316917	0	-0.63984541	34.37419431	694.36156167	-43.95522240	1.01283688	0	-0.37733657	0	5.51119692	0	0	3.35752407	0.00000000
84.41000000	5.99517078	421.52760719	-2.65159313	1.10999916	0	-0.63872813	40.12202515	671.37240864	-41.26636697	1.00677981	0	-0.37822681	0	6.52814167	0	0	3.41049488	0.00000000
84.42000000	6.29470856	496.76800142	7.58462332	1.08890640	0	-0.63234324	45.41445220	645.28113922	-37.08081336	1.00072625	0	-0.37912729	0	6.14796270	0	0	3.41430290	0
84.43000000	4.51341685	555.47653443	20.54963308	1.07349858	0	-0.62842395	50.14727686	614.61200155	-31.28017679	0.99471102	0	-0.37991552	0	4.74432957	0	0	3.32482985	0
84.44000000	3.10032270	604.63883582	34.64225755	1.06464247	0	-0.62787600	54.21645436	577.38937933	-24.24277969	0.98894506	0	-0.38051345	0	2.82265745	0	0	3.13954490	0
84.45000000	3.38529307	651.69460398	48.98502259	1.05948537	0	-0.62938696	57.53178172	531.35549027	-16.79648500	0.98375017	0	-0.38103328	0	0.74298978	0	0	2.93513097	0
84.46000000	5.00136841	699.78794271	62.76016927	1.05547808	0	-0.63163255	59.67879168	474.71166773	-9.82607198	0.97990306	0	-0.38189285	0	-1.25147684	0	0	2.70133021	0
84.47000000	7.89342538	746.45803267	74.38808227	1.05090139	0	-0.63374477	59.41379389	407.30529323	-4.11852212	0.97915161	0	-0.38401237	0	-2.88601700	0	0	2.37824130	0
84.48000000	11.97399613	787.63259280	82.94890344	1.04564548	0	-0.63544525	54.50456960	332.35482964	-0.18683705	0.98341899	0	-0.38836280	0	-4.04918608	0	0	1.97010766	-0.00000000
84.49000000	16.07557781	820.04729180	88.53344001	1.04003553	0	-0.63671171	43.39101307	256.15712608	1.98212809	0.99155576	0	-0.39457176	0	-4.78436448	0	0	1.46578832	0
84.50000000	19.29983195	841.88442128	91.53822508	1.03442457	0	-0.63765292	27.69441573	185.72096698	2.61975415	0.99352354	0	-0.39791966	0	-5.21235147	0	0	0.89530518	-0.00000000
84.51000000	21.70011647	852.64633292	92.31146882	1.02894971	0	-0.63837208	11.14173311	126.19333224	2.02976334	0.95947927	0	-0.38586109	0	-5.41348238	0	0	0.37077146	0
84.52000000	23.60809700	853.05174067	91.44152733	1.02368447	0	-0.63892886	-2.70824991	80.01090181	0.74147582	0.83893198	0	-0.33790506	0	-5.46643478	0	0	-0.02107767	-0.00000000
84.53000000	25.18005388	844.62956363	89.56497340	1.01850278	0	-0.63940949	-11.48762502	46.95754043	-0.46509672	0.59181904	0	-0.23841357	0	-5.47189703	0	0	-0.21570149	0
84.54000000	26.53066294	829.39847880	87.17483579	1.01311403	0	-0.63988142	-13.67192973	24.64718707	-0.97415142	0.28429555	0	-0.11450021	0	-5.50550797	0	0	-0.19265599	0.00000000
84.55000000	27.86288201	809.88580650	84.63548339	1.00736604	0	-0.64034398	-10.02158360	10.20299789	-0.88521286	0.07342563	0	-0.02955309	0	-5.61385918	0	0	-0.09839443	0.00000000
84.56000000	29.36938542	788.66940842	82.08212680	1.00145674	0	-0.64078092	-4.72557035	1.97718966	-0.64632719	-0.01574328	0	0.00635605	0	-5.81016755	0	0	-0.02856605	-0.00000000
84.57000000	31.01030976	768.14719271	79.60711053	0.99559293	0	-0.64115718	-1.10164638	-1.33302678	-0.35665272	-0.03206381	0	0.01292112	0	-6.08300954	0	0	0.00290484	0.00000000
84.58000000	32.67898663	750.22416237	77.35959722	0.98983619	0	-0.64141936	0.43488108	-1.77561427	-0.19266608	-0.02171363	0	0.00874708	0	-6.37218332	0	0	0.00987677	-0.00000000
84.59000000	34.19489940	735.86542021	75.48190787	0.98416532	0	-0.64158410	0.72768356	-1.18801749	-0.17315114	-0.00906020	0	0.00364858	0	-6.66112767	0	0	0.00720140	0.00000000
84.60000000	35.41353683	725.08365461	73.94990222	0.97841400	0	-0.64169192	0.54992628	-0.61073175	-0.14886741	-0.00158240	0	0.00063648	0	-6.93715729	0	0	0.00320456	-0.00000000
84.61000000	36.32792201	717.42892837	72.77357213	0.97253125	0	-0.64177201	0.32095638	-0.31512475	-0.20826178	0.00111284	0	-0.00044877	0	-7.21332256	0	0	0.00068591	0.00000000
84.62000000	37.15358312	712.48847009	71.91726091	0.96656841	0	-0.64188470	0.19214711	-0.32643812	-0.30416139	0.00131497	0	-0.00052985	0	-7.48576813	0	0	-0.00029180	-0.00000000
84.63000000	38.08515746	709.97051817	71.34515774	0.96053619	0	-0.64206991	0.13412586	-0.46530355	-0.30425497	0.00076721	0	-0.00030905	0	-7.75018158	0	0	-0.00041629	-0.00000000
84.64000000	39.22823834	709.85166108	71.02083044	0.95439377	0	-0.64229571	0.11597997	-0.60681685	-0.29225144	0.00027206	0	-0.00010956	0	-7.97344282	0	0	-0.00025885	-0.00000000
84.65000000	40.51851103	711.93709925	70.91604321	0.94827008	0	-0.64251702	0.10206245	-0.68754364	-0.28230644	0.00001730	0	-0.00000692	0	-8.14628180	0	0	-0.00009896	0.00000000
84.66000000	42.02868331	715.44274254	71.01006792	0.94216374	0	-0.64271575	0.08399139	-0.69816890	-0.23017643	-0.00005710	0	0.00002311	0	-8.31650113	0	0	-0.00001143	0.00000000
84.67000000	44.03389323	719.83014055	71.22854440	0.93598986	0	-0.64294301	0.08686692	-0.63726772	-0.15742354	-0.00004913	0	0.00002005	0	-8.50867934	0	0	0.00001707	-0.00000000
84.68000000	46.76154588	725.21954764	71.56006100	0.92973204	0	-0.64324000	0.10016029	-0.54438468	-0.12122607	-0.00002259	0	0.00000952	0	-8.68383210	0	0	0.00001683	0.00000000
84.69000000	50.12852418	731.80851391	72.08510749	0.92355564	0	-0.64358612	0.10634410	-0.48058799	-0.12520591	-0.00000492	0	0.00000229	0	-8.80615148	0	0	0.00000850	0.00000000
